# xmcd CD database file
#
# Track frame offsets:
#	150
#	13830
#	29482
#	41347
#	54360
#	70530
#	83685
#	98747
#	114652
#	127212
#
# Disc length: 1834 seconds
#
# Revision: 0
# Processed by: cddbd v1.4PL0 Copyright (c) Steve Scherf et al.
# Submitted via: CDex 1.50
#
DISCID=7c07280a
DTITLE=Various Artist - Inspirational Hits
DYEAR=1900
DGENRE=Country
TTITLE0=The Last Word In Jesus Is Us
TTITLE1=Why Me
TTITLE2=Robbie's Song For Jesus
TTITLE3=I Knew Jesus Before He Was A Superstar
TTITLE4=All Our Favorite Songs
TTITLE5=Swing Low Sweet Chariot/Swing Down Chariot
TTITLE6=Me And Jesus
TTITLE7=The Wonders You Perform
TTITLE8=Sweet By And By
TTITLE9=Wings Of A Dove
EXTD=
EXTT0=
EXTT1=
EXTT2=
EXTT3=
EXTT4=
EXTT5=
EXTT6=
EXTT7=
EXTT8=
EXTT9=
PLAYORDER=
